<?xml version="1.0" standalone="no"?>
<!DOCTYPE svg PUBLIC "-//W3C//DTD SVG 20010904//EN"
 "http://www.w3.org/TR/2001/REC-SVG-20010904/DTD/svg10.dtd">
<svg version="1.0" xmlns="http://www.w3.org/2000/svg"
 width="225.000000pt" height="225.000000pt" viewBox="0 0 225.000000 225.000000"
 preserveAspectRatio="xMidYMid meet">

<g transform="translate(0.000000,225.000000) scale(0.100000,-0.100000)"
fill="#000000" stroke="none">
<path d="M581 2165 c-331 -75 -533 -396 -456 -724 49 -206 226 -383 438 -437
84 -22 250 -15 329 14 l57 20 88 -126 c73 -105 93 -127 113 -127 15 0 26 6 28
17 2 10 -35 73 -82 142 l-86 124 29 22 30 21 56 -81 c58 -81 61 -85 89 -74 28
11 18 41 -38 121 l-55 76 38 46 c82 101 129 217 137 346 15 211 -101 436 -279
543 -127 76 -303 108 -436 77z m249 -71 c232 -54 401 -272 399 -514 -2 -265
-194 -484 -460 -523 -234 -34 -469 109 -562 341 -28 71 -40 185 -27 261 21
119 65 206 144 286 39 39 94 84 121 99 109 60 259 80 385 50z"/>
<path d="M603 2026 c-251 -61 -403 -311 -338 -559 21 -80 46 -125 106 -191 87
-95 201 -146 328 -146 230 0 415 156 454 385 32 187 -78 392 -255 475 -104 49
-195 60 -295 36z m237 -80 c110 -39 215 -159 240 -274 47 -226 -94 -434 -322
-474 -156 -27 -328 64 -404 214 -73 144 -37 337 83 449 57 53 78 66 153 91 65
22 179 19 250 -6z"/>
<path d="M647 1642 c-64 -64 -117 -125 -117 -134 0 -15 36 -35 45 -26 77 73
235 233 235 239 0 9 -29 39 -38 39 -4 0 -60 -53 -125 -118z"/>
<path d="M824 1646 c-33 -32 -45 -51 -42 -68 5 -38 36 -34 84 13 48 47 55 72
24 89 -18 10 -27 5 -66 -34z"/>
<path d="M1350 1248 c-71 -37 -81 -62 -101 -282 -17 -177 -21 -198 -56 -285
-36 -89 -37 -94 -19 -107 31 -22 50 -1 89 103 34 89 38 114 52 283 15 176 16
185 42 212 17 17 37 28 54 28 31 0 27 12 55 -165 8 -55 18 -103 22 -106 4 -3
54 -20 112 -38 126 -39 218 -83 254 -120 38 -40 49 -122 36 -258 -6 -60 -13
-133 -16 -163 l-5 -55 81 -65 c115 -92 125 -97 144 -81 9 7 16 20 16 27 0 7
-38 44 -85 81 l-86 68 5 40 c15 112 18 315 6 365 -22 93 -100 148 -303 215
l-102 33 -11 68 c-7 38 -15 91 -19 118 -5 35 -15 58 -35 78 -35 34 -70 36
-130 6z"/>
<path d="M1032 758 c-19 -19 -16 -353 3 -409 26 -72 77 -116 169 -144 69 -21
88 -32 137 -81 58 -57 82 -64 96 -28 4 11 -14 36 -57 79 -54 54 -74 67 -129
84 -36 11 -81 30 -99 41 -54 33 -62 67 -62 264 0 96 -3 181 -6 190 -7 19 -35
21 -52 4z"/>
</g>
</svg>
