<?xml version="1.0" standalone="no"?>
<!DOCTYPE svg PUBLIC "-//W3C//DTD SVG 20010904//EN"
 "http://www.w3.org/TR/2001/REC-SVG-20010904/DTD/svg10.dtd">
<svg version="1.0" xmlns="http://www.w3.org/2000/svg"
 width="367.000000pt" height="367.000000pt" viewBox="0 0 367.000000 367.000000"
 preserveAspectRatio="xMidYMid meet">
<metadata>
Created by potrace 1.11, written by Peter Selinger 2001-2013
</metadata>
<g transform="translate(0.000000,367.000000) scale(0.100000,-0.100000)"
fill="#000000" stroke="none">
<path d="M1570 3635 c-47 -7 -105 -18 -130 -25 -25 -7 -62 -14 -83 -17 -20 -3
-40 -9 -43 -14 -3 -5 -18 -9 -35 -9 -16 0 -29 -4 -29 -10 0 -5 -13 -10 -30
-10 -16 0 -30 -4 -30 -10 0 -5 -7 -10 -15 -10 -8 0 -23 -4 -33 -9 -9 -5 -62
-30 -117 -56 -55 -26 -102 -50 -105 -54 -3 -3 -17 -12 -32 -20 -15 -8 -37 -22
-47 -33 -11 -10 -24 -18 -28 -18 -5 0 -29 -18 -53 -40 -24 -22 -48 -40 -52
-40 -27 0 -289 -268 -348 -355 -37 -55 -55 -80 -61 -85 -3 -3 -16 -25 -30 -50
-13 -25 -26 -47 -29 -50 -5 -5 -56 -110 -91 -185 -9 -22 -23 -58 -30 -80 -6
-22 -17 -56 -24 -75 -23 -66 -34 -105 -46 -170 -6 -36 -15 -74 -20 -85 -28
-68 -28 -524 1 -590 5 -11 11 -36 14 -55 17 -121 83 -317 158 -465 17 -33 36
-70 42 -82 6 -13 14 -23 19 -23 4 0 7 -9 7 -20 0 -11 5 -20 10 -20 6 0 10 -7
10 -15 0 -8 4 -15 8 -15 5 0 14 -11 20 -24 12 -27 39 -61 90 -112 17 -18 32
-38 32 -44 0 -13 182 -196 240 -240 53 -40 56 -43 94 -74 16 -13 41 -30 55
-38 14 -7 28 -15 31 -18 10 -10 65 -41 83 -47 9 -3 17 -9 17 -14 0 -5 9 -9 20
-9 11 0 20 -4 20 -10 0 -5 6 -10 13 -10 7 0 38 -12 68 -27 202 -102 470 -157
759 -157 155 1 215 6 350 29 74 13 208 49 270 73 105 40 120 46 120 54 0 5 7
8 15 8 8 0 23 4 33 9 9 5 32 16 50 23 17 7 32 16 32 20 0 5 9 8 20 8 11 0 20
3 20 8 0 4 12 13 28 20 38 17 194 130 260 188 94 84 212 207 212 222 0 4 13
21 28 37 15 17 39 46 52 65 13 19 30 41 38 49 8 8 18 24 23 35 5 12 18 35 28
51 41 67 61 106 61 120 0 8 5 15 10 15 6 0 10 9 10 20 0 11 5 20 10 20 6 0 10
11 10 25 0 14 3 25 8 25 4 0 18 35 31 78 12 42 27 86 31 97 15 35 28 88 39
155 6 36 17 106 26 156 26 160 20 312 -25 569 -18 98 -69 263 -101 327 -5 10
-9 25 -9 33 0 8 -4 15 -10 15 -5 0 -10 7 -10 15 0 15 -5 27 -30 74 -34 66 -65
117 -76 128 -7 7 -16 22 -19 33 -3 11 -11 20 -16 20 -5 0 -9 7 -9 15 0 8 -4
15 -8 15 -5 0 -15 12 -23 28 -8 15 -21 34 -29 42 -9 8 -27 31 -40 50 -43 62
-192 205 -285 274 -49 37 -98 73 -107 81 -9 7 -27 19 -40 26 -13 6 -25 15 -28
20 -8 11 -181 99 -196 99 -8 0 -14 5 -14 10 0 6 -7 10 -15 10 -8 0 -23 4 -33
9 -30 15 -66 29 -107 42 -22 6 -49 15 -60 20 -11 4 -33 10 -50 12 -16 3 -48
10 -70 16 -151 41 -490 54 -675 26z m480 -559 c101 -17 138 -25 165 -35 38
-15 91 -31 104 -31 6 0 31 -9 53 -20 23 -11 48 -20 55 -20 7 0 13 -4 13 -10 0
-5 7 -10 15 -10 14 0 53 -18 65 -30 6 -6 46 -29 83 -48 15 -7 27 -17 27 -22 0
-5 9 -11 19 -15 29 -9 211 -187 211 -206 0 -19 -22 -26 -125 -39 -135 -18
-155 -22 -155 -31 0 -5 -9 -9 -19 -9 -18 0 -104 -42 -197 -96 -40 -24 -40 -24
-62 -4 -12 11 -28 20 -37 20 -8 0 -15 4 -15 8 0 4 -33 22 -72 40 -40 19 -81
38 -90 43 -10 5 -30 9 -46 9 -15 0 -32 4 -37 9 -16 14 -173 24 -415 25 l-225
1 -3 -232 -2 -233 282 0 c287 -1 318 -4 318 -39 0 -6 5 -11 10 -11 6 0 10 -74
10 -202 0 -199 0 -204 -24 -230 l-23 -28 -287 0 -286 0 0 -280 0 -280 283 0
c337 1 379 8 546 92 85 44 88 44 110 20 25 -29 101 -77 177 -114 95 -46 164
-66 262 -75 65 -6 68 -24 10 -73 -22 -19 -51 -45 -64 -58 -13 -12 -27 -22 -32
-22 -4 0 -17 -8 -28 -18 -10 -10 -34 -25 -51 -32 -18 -8 -33 -18 -33 -22 0 -5
-9 -8 -20 -8 -11 0 -20 -4 -20 -10 0 -5 -9 -10 -20 -10 -11 0 -20 -4 -20 -10
0 -5 -8 -10 -18 -10 -10 0 -22 -4 -27 -8 -11 -10 -138 -50 -200 -64 -183 -41
-320 -50 -879 -54 -439 -4 -501 -3 -522 11 l-24 15 0 1229 c0 675 3 1231 7
1234 3 4 268 7 587 7 450 0 600 -4 666 -14z m938 -655 c9 -5 37 -15 62 -22 52
-15 161 -72 198 -103 49 -40 113 -111 134 -148 12 -21 25 -38 30 -38 4 0 8 -9
8 -20 0 -11 5 -20 10 -20 6 0 10 -9 10 -20 0 -11 5 -20 10 -20 6 0 10 -13 10
-30 0 -16 4 -30 9 -30 11 0 25 -108 25 -190 -1 -86 -15 -190 -25 -190 -5 0 -9
-7 -9 -15 0 -21 -41 -106 -62 -129 -10 -11 -18 -23 -18 -28 0 -21 -136 -158
-156 -158 -8 0 -14 -4 -14 -8 0 -12 -91 -59 -157 -81 -172 -58 -323 -49 -505
32 -27 11 -48 24 -48 29 0 4 -6 8 -12 8 -28 1 -164 129 -189 178 -8 15 -16 29
-19 32 -13 13 -50 94 -50 110 0 11 -4 21 -8 24 -5 3 -14 36 -22 74 -17 90 -9
239 18 317 27 83 55 145 64 145 5 0 8 7 8 15 0 20 156 176 195 195 17 8 32 18
35 21 9 11 64 35 110 48 25 7 52 17 60 21 20 12 276 12 298 1z"/>
</g>
</svg>
